# Blender v2.82 (sub 7) OBJ File: ''
# www.blender.org
mtllib hallway_ceilingless.mtl
o Hallway_V1
v 20.300858 4.740912 0.091454
v 6.853354 4.740912 0.091454
v 6.853354 4.245912 0.091454
v 6.028355 4.740912 0.091454
v 0.170853 4.740912 0.091454
v 6.028355 4.245912 0.091454
v 0.170853 0.450911 0.091454
v 7.183355 0.450911 0.091454
v 8.668354 0.450911 0.091454
v 8.668354 0.285911 0.091454
v 9.658355 0.285911 0.091454
v 9.658355 0.450911 0.091454
v 14.294857 0.450911 0.091454
v 8.173355 0.450911 0.091454
v 8.173355 0.285911 0.091454
v 7.183355 0.285911 0.091454
v 15.779857 0.285911 0.091454
v 16.769857 0.285911 0.091454
v 15.779857 0.450911 0.091454
v 16.769857 0.450911 0.091454
v 22.709858 0.450911 0.091454
v 24.920858 4.245912 0.091454
v 24.508358 4.245912 0.091454
v 24.920858 0.450911 0.091454
v 23.930859 0.450911 0.091454
v 23.930859 0.120911 0.091454
v 22.709858 0.120911 0.091454
v 24.508358 4.740912 0.091454
v 23.930859 4.740912 0.091454
v 23.930859 4.080912 0.091454
v 22.940859 4.080912 0.091454
v 14.294857 0.285911 0.091454
v 15.284857 0.285911 0.091454
v 15.284857 0.450911 0.091454
v 20.300858 4.245912 0.091454
v 21.125858 4.245912 0.091454
v 21.125858 4.740912 0.091454
v 22.940859 4.740912 0.091454
vt 2.110634 1.046512
vt 2.110634 4.098583
vt 1.999809 4.098583
vt 2.110634 4.285827
vt 2.110634 5.615256
vt 1.999809 4.285827
vt 1.150152 5.615256
vt 1.150151 4.023685
vt 1.150151 3.686647
vt 1.113210 3.686647
vt 1.113210 3.461955
vt 1.150151 3.461955
vt 1.150151 2.409646
vt 1.150151 3.798993
vt 1.113210 3.798993
vt 1.113210 4.023685
vt 1.113210 2.072607
vt 1.113210 1.847915
vt 1.150151 2.072607
vt 1.150151 1.847915
vt 1.150151 0.499761
vt 1.999808 -0.002052
vt 1.999808 0.091570
vt 1.150151 -0.002052
vt 1.150151 0.222641
vt 1.076268 0.222641
vt 1.076268 0.499761
vt 2.110633 0.091570
vt 2.110633 0.222640
vt 1.962867 0.222640
vt 1.962867 0.447333
vt 1.113210 2.409646
vt 1.113210 2.184953
vt 1.150151 2.184953
vt 1.999809 1.046512
vt 1.999809 0.859269
vt 2.110633 0.859269
vt 2.110633 0.447333
vn 0.0000 0.0000 1.0000
usemtl Material.001
s 1
f 1/1/1 2/2/1 3/3/1
f 4/4/1 5/5/1 6/6/1
f 6/6/1 5/5/1 7/7/1
f 6/6/1 7/7/1 3/3/1
f 3/3/1 7/7/1 8/8/1
f 3/3/1 8/8/1 1/1/1
f 9/9/1 10/10/1 11/11/1
f 12/12/1 13/13/1 1/1/1
f 11/11/1 12/12/1 9/9/1
f 9/9/1 12/12/1 1/1/1
f 9/9/1 1/1/1 14/14/1
f 14/14/1 1/1/1 8/8/1
f 14/14/1 8/8/1 15/15/1
f 15/15/1 8/8/1 16/16/1
f 17/17/1 18/18/1 19/19/1
f 19/19/1 18/18/1 20/20/1
f 21/21/1 22/22/1 20/20/1
f 20/20/1 22/22/1 23/23/1
f 24/24/1 22/22/1 25/25/1
f 25/25/1 22/22/1 21/21/1
f 25/25/1 21/21/1 26/26/1
f 26/26/1 21/21/1 27/27/1
f 28/28/1 29/29/1 23/23/1
f 23/23/1 29/29/1 30/30/1
f 23/23/1 30/30/1 20/20/1
f 20/20/1 30/30/1 31/31/1
f 32/32/1 33/33/1 13/13/1
f 13/13/1 33/33/1 34/34/1
f 13/13/1 34/34/1 1/1/1
f 1/1/1 34/34/1 19/19/1
f 1/1/1 19/19/1 35/35/1
f 35/35/1 19/19/1 20/20/1
f 35/35/1 20/20/1 36/36/1
f 36/36/1 20/20/1 31/31/1
f 36/36/1 31/31/1 37/37/1
f 37/37/1 31/31/1 38/38/1
o Hallway_V1.001
v 8.173355 0.285911 0.091454
v 7.183355 0.285911 0.091454
v 8.173355 0.285911 2.291455
v 7.183355 0.285911 2.291455
v 9.658355 0.285911 0.091454
v 8.668354 0.285911 0.091454
v 9.658355 0.285911 2.291455
v 8.668354 0.285911 2.291455
v 15.284857 0.285911 0.091454
v 14.294857 0.285911 0.091454
v 15.284857 0.285911 2.291455
v 14.294857 0.285911 2.291455
v 16.769857 0.285911 0.091454
v 15.779857 0.285911 0.091454
v 16.769857 0.285911 2.291455
v 15.779857 0.285911 2.291455
vt -0.001645 -0.002404
vt 0.989391 -0.002403
vt -0.001645 0.997193
vt 0.989391 0.997192
vt 0.990191 -0.002404
vt 1.981226 -0.002404
vt 0.990192 0.997191
vt 1.981228 0.997191
vt 0.990191 0.997985
vt 1.981226 0.997985
vt 0.990192 1.997581
vt 1.981226 1.997581
vt -0.001645 0.997985
vt 0.989390 0.997985
vt -0.001644 1.997580
vt 0.989390 1.997581
vn 0.0000 1.0000 0.0000
usemtl Material.004
s 1
f 39/39/2 40/40/2 41/41/2
f 41/41/2 40/40/2 42/42/2
f 43/43/2 44/44/2 45/45/2
f 45/45/2 44/44/2 46/46/2
f 47/47/2 48/48/2 49/49/2
f 49/49/2 48/48/2 50/50/2
f 51/51/2 52/52/2 53/53/2
f 53/53/2 52/52/2 54/54/2
o Hallway_V1.003
v 7.183355 0.285911 0.091454
v 7.183355 0.450911 0.091454
v 7.183355 0.285911 2.291455
v 7.183355 0.450911 2.291455
v 8.173355 0.450911 0.091454
v 8.173355 0.285911 0.091454
v 8.173355 0.450911 2.291455
v 8.173355 0.285911 2.291455
v 8.668354 0.285911 0.091454
v 8.668354 0.450911 0.091454
v 8.668354 0.285911 2.291455
v 8.668354 0.450911 2.291455
v 9.658355 0.450911 0.091454
v 9.658355 0.285911 0.091454
v 9.658355 0.450911 2.291455
v 9.658355 0.285911 2.291455
v 15.284857 0.450911 0.091454
v 15.284857 0.285911 0.091454
v 15.284857 0.450911 2.291455
v 15.284857 0.285911 2.291455
v 15.779857 0.285911 0.091454
v 15.779857 0.450911 0.091454
v 15.779857 0.285911 2.291455
v 15.779857 0.450911 2.291455
v 16.769857 0.450911 0.091454
v 16.769857 0.285911 0.091454
v 16.769857 0.450911 2.291455
v 16.769857 0.285911 2.291455
v 14.294857 0.285911 2.291455
v 14.294857 0.450911 2.291455
vt 0.000000 0.000000
vt 0.000000 0.000000
vt 0.000000 0.000000
vt 0.000000 0.000000
vt 0.000000 0.000000
vt 0.000000 0.000000
vt 0.000000 0.000000
vt 0.000000 0.000000
vt 0.000000 0.000000
vt 0.000000 0.000000
vt 0.000000 0.000000
vt 0.000000 0.000000
vt 0.000000 0.000000
vt 0.000000 0.000000
vt 0.000000 0.000000
vt 0.000000 0.000000
vt 0.000000 0.000000
vt 0.000000 0.000000
vt 0.000000 0.000000
vt 0.000000 0.000000
vt 0.000000 0.000000
vt 0.000000 0.000000
vt 0.000000 0.000000
vt 0.000000 0.000000
vt 0.000000 0.000000
vt 0.000000 0.000000
vt 0.000000 0.000000
vt 0.000000 0.000000
vt 0.000000 0.000000
vt 0.000000 0.000000
vn 1.0000 0.0000 0.0000
vn -1.0000 0.0000 0.0000
vn 0.0000 0.0000 -1.0000
usemtl Material.006
s 1
f 55/55/3 56/56/3 57/57/3
f 57/57/3 56/56/3 58/58/3
f 59/59/4 60/60/4 61/61/4
f 61/61/4 60/60/4 62/62/4
f 63/63/3 64/64/3 65/65/3
f 65/65/3 64/64/3 66/66/3
f 67/67/4 68/68/4 69/69/4
f 69/69/4 68/68/4 70/70/4
f 71/71/4 72/72/4 73/73/4
f 73/73/4 72/72/4 74/74/4
f 75/75/3 76/76/3 77/77/3
f 77/77/3 76/76/3 78/78/3
f 79/79/4 80/80/4 81/81/4
f 81/81/4 80/80/4 82/82/4
f 65/65/5 66/66/5 70/70/5
f 70/70/5 66/66/5 69/69/5
f 57/57/5 58/58/5 62/62/5
f 62/62/5 58/58/5 61/61/5
f 83/83/5 84/84/5 74/74/5
f 74/74/5 84/84/5 73/73/5
f 77/77/5 78/78/5 82/82/5
f 82/82/5 78/78/5 81/81/5
o Hallway_V1.004
v 7.083355 0.350911 -0.008546
v 7.083355 0.185911 -0.008546
v 7.083355 0.350911 2.391455
v 7.083355 0.185911 2.391455
v 8.273355 0.185911 -0.008546
v 8.273355 0.185911 2.391455
v 8.273355 0.350911 -0.008546
v 8.273355 0.350911 2.391455
v 8.568356 0.350911 -0.008546
v 8.568356 0.185911 -0.008546
v 8.568356 0.350911 2.391455
v 8.568356 0.185911 2.391455
v 9.758355 0.185911 -0.008546
v 9.758355 0.185911 2.391455
v 9.758355 0.350911 -0.008546
v 9.758355 0.350911 2.391455
v 14.194857 0.350911 -0.008546
v 14.194857 0.185911 -0.008546
v 14.194857 0.350911 2.391455
v 14.194857 0.185911 2.391455
v 15.384856 0.185911 -0.008546
v 15.384856 0.185911 2.391455
v 15.384856 0.350911 -0.008546
v 15.384856 0.350911 2.391455
v 15.679857 0.350911 -0.008546
v 15.679857 0.185911 -0.008546
v 15.679857 0.350911 2.391455
v 15.679857 0.185911 2.391455
v 16.869858 0.185911 -0.008546
v 16.869858 0.185911 2.391455
v 16.869858 0.350911 -0.008546
v 16.869858 0.350911 2.391455
v 22.609858 0.350911 -0.008546
v 22.609858 0.020911 -0.008546
v 22.609858 0.350911 2.391455
v 22.609858 0.020911 2.391455
v 24.030859 0.020911 -0.008546
v 24.030859 0.020911 2.391455
v 24.030859 0.350911 -0.008546
v 24.030859 0.350911 2.391455
v 0.070852 0.350911 -0.008546
v 25.020859 0.350911 2.991455
v 25.020859 0.350911 -0.008546
v 25.020859 4.345912 2.991455
v 25.020859 4.345912 -0.008546
v 24.608358 4.345912 2.991455
v 24.608358 4.345912 -0.008546
v 24.608358 4.840912 2.991455
v 24.608358 4.840912 -0.008546
v 23.830858 4.840912 2.991455
v 23.830858 4.840912 -0.008546
v 23.830858 4.180912 2.991455
v 23.830858 4.180912 -0.008546
v 23.040859 4.180912 2.991455
v 23.040859 4.180912 -0.008546
v 23.040859 4.840912 2.991455
v 23.040859 4.840912 -0.008546
v 21.025858 4.840912 2.991455
v 21.025858 4.840912 -0.008546
v 21.025858 4.345912 2.991455
v 21.025858 4.345912 -0.008546
v 20.400858 4.345912 2.991455
v 20.400858 4.345912 -0.008546
v 20.400858 4.840912 2.991455
v 20.400858 4.840912 -0.008546
v 6.753355 4.840912 2.991455
v 6.753355 4.840912 -0.008546
v 6.753355 4.345912 2.991455
v 6.753355 4.345912 -0.008546
v 6.128353 4.345912 2.991455
v 6.128353 4.345912 -0.008546
v 6.128353 4.840912 2.991455
v 6.128353 4.840912 -0.008546
v 0.070852 4.840912 2.991455
v 0.070852 4.840912 -0.008546
v 14.294857 0.285911 0.091454
v 14.294857 0.450911 0.091454
v 14.294857 0.285911 2.291455
v 14.294857 0.450911 2.291455
v 22.709858 0.120911 0.091454
v 22.709858 0.450911 0.091454
v 22.709858 0.120911 2.291455
v 22.709858 0.450911 2.291455
v 23.930859 0.120911 0.091454
v 23.930859 0.120911 2.291455
v 23.930859 0.450911 0.091454
v 23.930859 0.450911 2.291455
v 24.920858 0.450911 2.891455
v 24.920858 0.450911 0.091454
v 16.769857 0.450911 0.091454
v 16.769857 0.450911 2.291455
v 0.170853 0.450911 2.891455
v 15.779857 0.450911 2.291455
v 9.658355 0.450911 0.091454
v 9.658355 0.450911 2.291455
v 8.668354 0.450911 2.291455
v 15.779857 0.450911 0.091454
v 15.284857 0.450911 0.091454
v 15.284857 0.450911 2.291455
v 7.183355 0.450911 0.091454
v 0.170853 0.450911 0.091454
v 7.183355 0.450911 2.291455
v 8.173355 0.450911 2.291455
v 8.173355 0.450911 0.091454
v 8.668354 0.450911 0.091454
v 24.920858 4.245912 2.891455
v 24.920858 4.245912 0.091454
v 24.508358 4.245912 2.891455
v 24.508358 4.245912 0.091454
v 24.508358 4.740912 2.891455
v 24.508358 4.740912 0.091454
v 23.930859 4.740912 2.891455
v 23.930859 4.740912 0.091454
v 23.930859 4.080912 2.891455
v 23.930859 4.080912 0.091454
v 22.940859 4.080912 2.891455
v 22.940859 4.080912 0.091454
v 22.940859 4.740912 2.891455
v 22.940859 4.740912 0.091454
v 21.125858 4.740912 2.891455
v 21.125858 4.740912 0.091454
v 21.125858 4.245912 2.891455
v 21.125858 4.245912 0.091454
v 20.300858 4.245912 2.891455
v 20.300858 4.245912 0.091454
v 20.300858 4.740912 2.891455
v 20.300858 4.740912 0.091454
v 6.853354 4.740912 2.891455
v 6.853354 4.740912 0.091454
v 6.853354 4.245912 2.891455
v 6.853354 4.245912 0.091454
v 6.028355 4.245912 2.891455
v 6.028355 4.245912 0.091454
v 6.028355 4.740912 2.891455
v 6.028355 4.740912 0.091454
v 0.170853 4.740912 2.891455
v 0.170853 4.740912 0.091454
vt 0.000000 0.000000
vt 0.000000 0.000000
vt 0.000000 0.000000
vt 0.000000 0.000000
vt 0.000000 0.000000
vt 0.000000 0.000000
vt 0.000000 0.000000
vt 0.000000 0.000000
vt 0.000000 0.000000
vt 0.000000 0.000000
vt 0.000000 0.000000
vt 0.000000 0.000000
vt 0.000000 0.000000
vt 0.000000 0.000000
vt 0.000000 0.000000
vt 0.000000 0.000000
vt 0.000000 0.000000
vt 0.000000 0.000000
vt 0.000000 0.000000
vt 0.000000 0.000000
vt 0.000000 0.000000
vt 0.000000 0.000000
vt 0.000000 0.000000
vt 0.000000 0.000000
vt 0.000000 0.000000
vt 0.000000 0.000000
vt 0.000000 0.000000
vt 0.000000 0.000000
vt 0.000000 0.000000
vt 0.000000 0.000000
vt 0.000000 0.000000
vt 0.000000 0.000000
vt 0.000000 0.000000
vt 0.000000 0.000000
vt 0.000000 0.000000
vt 0.000000 0.000000
vt 0.000000 0.000000
vt 0.000000 0.000000
vt 0.000000 0.000000
vt 0.000000 0.000000
vt 0.000000 0.000000
vt 0.000000 0.000000
vt 0.000000 0.000000
vt 0.000000 0.000000
vt -7.956182 -6.919639
vt -8.028528 -7.425615
vt -4.129538 -7.425615
vt 0.000000 0.000000
vt 0.000000 0.000000
vt 0.000000 0.000000
vt 0.000000 0.000000
vt 0.000000 0.000000
vt 0.000000 0.000000
vt 0.000000 0.000000
vt 0.000000 0.000000
vt 0.000000 0.000000
vt 0.000000 0.000000
vt 0.000000 0.000000
vt 0.000000 0.000000
vt 0.000000 0.000000
vt 0.000000 0.000000
vt 0.000000 0.000000
vt 0.000000 0.000000
vt 0.000000 0.000000
vt 0.000000 0.000000
vt 0.000000 0.000000
vt 0.000000 0.000000
vt 0.000000 0.000000
vt 0.000000 0.000000
vt 0.000000 0.000000
vt 0.000000 0.000000
vt 0.000000 0.000000
vt 0.000000 0.000000
vt 0.000000 0.000000
vt 0.000000 0.000000
vt 0.000000 0.000000
vt 0.000000 0.000000
vt 0.000000 0.000000
vt 0.000000 0.000000
vt 0.000000 0.000000
vt 0.000000 0.000000
vt 0.000000 0.000000
vt 0.000000 0.000000
vt 0.000000 0.000000
vt 0.000000 0.000000
vt 0.000000 0.000000
vt 0.000000 0.000000
vt 0.000000 0.000000
vt 0.000000 0.000000
vt 0.000000 0.000000
vt -15.570341 4.960449
vt -15.570343 1.493619
vt -14.295670 1.493619
vt -12.723573 1.493619
vt -5.075533 1.493618
vt -12.723571 4.217557
vt -5.075533 4.217556
vt -14.295670 4.217557
vt 16.296490 4.960443
vt -3.800860 4.217554
vt -1.888850 4.217554
vt -1.888850 1.493617
vt 4.080868 1.493616
vt 4.080870 4.217553
vt 5.355548 4.217552
vt -3.800860 1.493618
vt -3.163523 1.493618
vt -3.163523 4.217554
vt 7.267553 1.493616
vt 16.296490 1.493614
vt 7.267555 4.217552
vt 5.992880 4.217552
vt 0.976782 1.667371
vt 0.387439 1.667371
vt 0.976782 -0.995478
vt 0.387439 -0.995478
vt -10.684093 -5.440045
vt -15.570341 -5.440045
vt -10.684096 -8.906874
vt -15.570343 -8.906874
vt 0.000000 0.000000
vt 0.000000 0.000000
vt 0.000000 0.000000
vt 0.000000 0.000000
vt 0.000000 0.000000
vt 0.000000 0.000000
vt 0.000000 0.000000
vt 0.000000 0.000000
vt 0.000000 0.000000
vt 0.000000 0.000000
vt 0.000000 0.000000
vt 0.000000 0.000000
vt 0.000000 0.000000
vt 0.000000 0.000000
vt -2.884770 -5.440047
vt -2.884771 -7.687295
vt 0.720365 -5.440047
vt 0.720365 -7.687295
vt 0.000000 0.000000
vt 0.000000 0.000000
vt 0.000000 0.000000
vt 0.000000 0.000000
vt 0.000000 0.000000
vt 0.000000 0.000000
vt 0.000000 0.000000
vt 0.000000 0.000000
vt -15.570343 -1.973213
vt 1.743971 -1.973216
vt -15.570341 1.493615
vt 1.743972 1.493612
vt 0.000000 0.000000
vt 0.000000 0.000000
vt 0.000000 0.000000
vt 0.000000 0.000000
vt 0.000000 0.000000
vt 0.000000 0.000000
vt 0.000000 0.000000
vt 0.000000 0.000000
vt -8.028528 -1.973215
vt -15.570343 -1.973215
vt -8.028528 -5.440045
vt -15.570341 -5.440045
vt 2.638814 -1.973217
vt -2.884770 -1.973216
vt 2.638813 -5.440047
vt -2.884771 -5.440046
vn -1.0000 0.0000 0.0000
vn 0.0000 -1.0000 0.0000
vn 1.0000 0.0000 0.0000
vn 0.0000 1.0000 0.0000
vn 0.0000 0.0000 1.0000
vn 0.0000 0.0000 -1.0000
usemtl Material.002
s 1
f 85/85/6 86/86/6 87/87/6
f 87/87/6 86/86/6 88/88/6
f 86/86/7 89/89/7 88/88/7
f 88/88/7 89/89/7 90/90/7
f 89/89/8 91/91/8 90/90/8
f 90/90/8 91/91/8 92/92/8
f 93/93/6 94/94/6 95/95/6
f 95/95/6 94/94/6 96/96/6
f 94/94/7 97/97/7 96/96/7
f 96/96/7 97/97/7 98/98/7
f 97/97/8 99/99/8 98/98/8
f 98/98/8 99/99/8 100/100/8
f 101/101/6 102/102/6 103/103/6
f 103/103/6 102/102/6 104/104/6
f 102/102/7 105/105/7 104/104/7
f 104/104/7 105/105/7 106/106/7
f 105/105/8 107/107/8 106/106/8
f 106/106/8 107/107/8 108/108/8
f 109/109/6 110/110/6 111/111/6
f 111/111/6 110/110/6 112/112/6
f 110/110/7 113/113/7 112/112/7
f 112/112/7 113/113/7 114/114/7
f 113/113/8 115/115/8 114/114/8
f 114/114/8 115/115/8 116/116/8
f 117/117/6 118/118/6 119/119/6
f 119/119/6 118/118/6 120/120/6
f 118/118/7 121/121/7 120/120/7
f 120/120/7 121/121/7 122/122/7
f 121/121/8 123/123/8 122/122/8
f 122/122/8 123/123/8 124/124/8
f 91/91/7 93/93/7 92/92/7
f 92/92/7 93/93/7 95/95/7
f 108/108/7 107/107/7 109/109/7
f 109/109/7 111/111/7 108/108/7
f 103/103/7 100/100/7 101/101/7
f 101/101/7 100/100/7 99/99/7
f 123/123/7 127/125/7 124/124/7
f 119/119/7 116/116/7 117/117/7
f 117/117/7 116/116/7 115/115/7
f 128/126/8 126/127/8 129/128/8
f 129/128/8 126/127/8 127/125/8
f 130/129/9 128/130/9 131/131/9
f 131/132/9 128/126/9 129/128/9
f 132/133/8 130/134/8 133/135/8
f 133/135/8 130/134/8 131/132/8
f 134/136/9 132/133/9 135/137/9
f 135/137/9 132/133/9 133/135/9
f 136/138/6 134/136/6 137/139/6
f 137/139/6 134/136/6 135/137/6
f 138/140/9 136/138/9 139/141/9
f 139/141/9 136/138/9 137/139/9
f 140/142/8 138/140/8 141/143/8
f 141/143/8 138/140/8 139/141/8
f 142/144/9 140/142/9 143/145/9
f 143/145/9 140/142/9 141/143/9
f 144/146/6 142/144/6 145/147/6
f 145/147/6 142/144/6 143/145/6
f 146/148/9 144/146/9 147/149/9
f 147/149/9 144/146/9 145/147/9
f 148/150/8 146/148/8 149/151/8
f 149/151/8 146/148/8 147/149/8
f 150/152/9 148/150/9 151/153/9
f 151/153/9 148/150/9 149/151/9
f 152/154/6 150/152/6 153/155/6
f 153/155/6 150/152/6 151/153/6
f 154/156/9 152/154/9 155/157/9
f 155/157/9 152/154/9 153/155/9
f 156/158/8 154/156/8 157/159/8
f 157/159/8 154/156/8 155/157/8
f 158/160/9 156/158/9 159/161/9
f 159/161/9 156/158/9 157/159/9
f 125/162/6 158/160/6 159/161/6
f 95/95/10 96/96/10 100/100/10
f 100/100/10 96/96/10 98/98/10
f 87/87/10 88/88/10 92/92/10
f 92/92/10 88/88/10 90/90/10
f 103/103/10 104/104/10 108/108/10
f 108/108/10 104/104/10 106/106/10
f 111/111/10 112/112/10 116/116/10
f 116/116/10 112/112/10 114/114/10
f 119/119/10 120/120/10 124/124/10
f 124/124/10 120/120/10 122/122/10
f 160/163/8 161/164/8 162/165/8
f 162/165/8 161/164/8 163/166/8
f 164/167/8 165/168/8 166/169/8
f 166/169/8 165/168/8 167/170/8
f 168/171/9 164/167/9 169/172/9
f 169/172/9 164/167/9 166/169/9
f 170/173/6 168/171/6 171/174/6
f 171/174/6 168/171/6 169/172/6
f 172/175/9 173/176/9 170/177/9
f 165/178/9 174/179/9 167/180/9
f 167/180/9 174/179/9 175/181/9
f 170/177/9 171/182/9 172/175/9
f 172/175/9 171/182/9 167/180/9
f 172/175/9 167/180/9 176/183/9
f 176/183/9 167/180/9 175/181/9
f 176/183/9 175/181/9 177/184/9
f 163/185/9 161/186/9 178/187/9
f 179/188/9 180/189/9 176/183/9
f 181/190/9 182/191/9 177/184/9
f 177/184/9 182/191/9 183/192/9
f 177/184/9 183/192/9 176/183/9
f 176/183/9 183/192/9 163/185/9
f 176/183/9 163/185/9 179/188/9
f 179/188/9 163/185/9 178/187/9
f 184/193/9 185/194/9 186/195/9
f 186/195/9 185/194/9 176/183/9
f 186/195/9 176/183/9 187/196/9
f 187/196/9 176/183/9 180/189/9
f 187/197/9 180/198/9 188/199/9
f 188/199/9 180/198/9 189/200/9
f 172/201/6 190/202/6 173/203/6
f 173/203/6 190/202/6 191/204/6
f 190/205/7 192/206/7 191/207/7
f 191/207/7 192/206/7 193/208/7
f 192/206/6 194/209/6 193/208/6
f 193/208/6 194/209/6 195/210/6
f 194/209/7 196/211/7 195/210/7
f 195/210/7 196/211/7 197/212/7
f 196/211/8 198/213/8 197/212/8
f 197/212/8 198/213/8 199/214/8
f 198/213/7 200/215/7 199/214/7
f 199/214/7 200/215/7 201/216/7
f 200/215/6 202/217/6 201/216/6
f 201/216/6 202/217/6 203/218/6
f 202/219/7 204/220/7 203/221/7
f 203/221/7 204/220/7 205/222/7
f 204/223/8 206/224/8 205/225/8
f 205/225/8 206/224/8 207/226/8
f 206/224/7 208/227/7 207/226/7
f 207/226/7 208/227/7 209/228/7
f 208/227/6 210/229/6 209/228/6
f 209/228/6 210/229/6 211/230/6
f 210/231/7 212/232/7 211/233/7
f 211/233/7 212/232/7 213/234/7
f 212/235/8 214/236/8 213/237/8
f 213/237/8 214/236/8 215/238/8
f 214/236/7 216/239/7 215/238/7
f 215/238/7 216/239/7 217/240/7
f 216/239/6 218/241/6 217/240/6
f 217/240/6 218/241/6 219/242/6
f 218/243/7 220/244/7 219/245/7
f 219/245/7 220/244/7 221/246/7
f 220/247/8 176/248/8 221/249/8
f 221/249/8 176/248/8 185/250/8
f 166/169/11 167/170/11 169/172/11
f 169/172/11 167/170/11 171/174/11
