# Blender v3.0.0 OBJ File: ''
# www.blender.org
mtllib rm3038_pt_cloud_2.mtl
o Plane.003
v -4.325375 3.767787 -0.233896
v 4.200400 -6.395585 -0.233896
v 4.108636 3.771570 -0.233896
v -4.398799 -6.421678 2.426237
v 4.273226 -6.422788 2.429090
v 4.444743 3.799263 2.439399
v -4.282183 3.807268 2.423160
v -4.367475 -6.441466 -0.233896
v -4.244433 3.775220 0.682074
v -3.433646 3.775220 -0.139809
v -4.244433 3.775220 -0.139809
v -3.433646 3.775220 0.682074
v -3.433646 -2.465961 -0.139809
v -3.433646 -2.465961 0.682074
v -4.244433 -2.465961 -0.139809
v -4.244433 -2.465961 0.682074
v 3.349444 3.501440 0.469612
v 3.936123 3.501440 -0.246689
v 3.349444 3.501440 -0.246689
v 3.936123 3.501440 0.469612
v 3.936123 0.385263 -0.246689
v 3.936123 0.385263 0.469612
v 3.349444 0.385263 -0.246689
v 3.349444 0.385263 0.469612
v 4.131071 -1.242904 2.304532
v 4.131071 -1.585528 -0.232198
vt 0.000000 0.000000
vt 1.000000 1.000000
vt 0.000000 1.000000
vt 1.000000 0.000000
vt 1.000000 1.000000
vt 0.000000 1.000000
vt 0.000000 0.000000
vt 1.000000 0.000000
vt 0.625000 0.000000
vt 0.375000 0.250000
vt 0.375000 0.000000
vt 0.625000 0.250000
vt 0.375000 0.500000
vt 0.625000 0.500000
vt 0.375000 0.750000
vt 0.625000 0.750000
vt 0.375000 1.000000
vt 0.125000 0.750000
vt 0.125000 0.500000
vt 0.875000 0.500000
vt 0.625000 0.000000
vt 0.375000 0.250000
vt 0.375000 0.000000
vt 0.625000 0.250000
vt 0.375000 0.500000
vt 0.625000 0.500000
vt 0.375000 0.750000
vt 0.625000 0.750000
vt 0.375000 1.000000
vt 0.125000 0.750000
vt 0.125000 0.500000
vt 0.875000 0.500000
vt 0.625000 1.000000
vt 0.875000 0.750000
vt 0.625000 1.000000
vt 0.875000 0.750000
vn -0.0000 0.0000 1.0000
vn 0.0001 0.9999 0.0102
vn -0.9921 0.0165 0.1246
vn 0.0004 -0.9999 0.0148
vn 0.9999 -0.0041 0.0118
vn 0.0000 1.0000 0.0000
vn 1.0000 -0.0000 0.0000
vn 0.0000 -1.0000 0.0000
vn -1.0000 0.0000 0.0000
vn 0.0000 0.0000 -1.0000
vn -0.0054 1.0000 -0.0075
vn -0.9996 -0.0090 0.0272
vn -0.0009 -0.9999 0.0105
vn 0.9998 -0.0114 -0.0161
usemtl None.001
s 1
f 1/1/1 2/2/1 3/3/1
f 2/2/2 4/4/2 5/5/2
f 3/3/3 5/5/3 6/6/3
f 3/3/4 7/7/4 1/1/4
f 1/1/5 4/4/5 8/8/5
f 9/9/6 10/10/6 11/11/6
f 12/12/7 13/13/7 10/10/7
f 14/14/8 15/15/8 13/13/8
f 16/16/9 11/17/9 15/15/9
f 13/13/10 11/18/10 10/19/10
f 12/20/1 16/16/1 14/14/1
f 17/21/6 18/22/6 19/23/6
f 20/24/7 21/25/7 18/22/7
f 22/26/8 23/27/8 21/25/8
f 24/28/9 19/29/9 23/27/9
f 21/25/10 19/30/10 18/31/10
f 20/32/1 24/28/1 22/26/1
f 1/1/1 8/8/1 2/2/1
f 2/2/11 8/8/11 4/4/11
f 3/3/12 2/2/12 5/5/12
f 3/3/13 6/6/13 7/7/13
f 1/1/14 7/7/14 4/4/14
f 9/9/6 12/12/6 10/10/6
f 12/12/7 14/14/7 13/13/7
f 14/14/8 16/16/8 15/15/8
f 16/16/9 9/33/9 11/17/9
f 13/13/10 15/15/10 11/18/10
f 12/20/1 9/34/1 16/16/1
f 17/21/6 20/24/6 18/22/6
f 20/24/7 22/26/7 21/25/7
f 22/26/8 24/28/8 23/27/8
f 24/28/9 17/35/9 19/29/9
f 21/25/10 23/27/10 19/30/10
f 20/32/1 17/36/1 24/28/1
l 25 26
