# Blender v2.82 (sub 7) OBJ File: 'rm3038_pt_cloud.blend'
# www.blender.org
mtllib rm3038_pt_cloud.mtl
o Plane
v -3.198122 -3.799802 -0.233896
v 7.011131 -3.841901 -0.233896
v -3.201906 4.634209 -0.233896
v 6.965249 4.725974 -0.233896
v 6.992452 4.798800 2.429090
v -3.229599 4.970316 2.439399
v -3.205555 -3.718860 0.682074
v 6.991342 -3.873226 2.426237
v -3.237603 -3.756610 2.423160
v -3.205555 -3.718860 -0.139809
v -3.205555 -2.908073 0.682074
v -3.205555 -2.908073 -0.139809
v 3.035626 -3.718860 -0.139809
v 3.035626 -3.718860 0.682074
v 3.035626 -2.908073 -0.139809
v 3.035626 -2.908073 0.682074
v -2.931776 3.875017 -0.246689
v -2.931776 3.875017 0.469612
v -2.931776 4.461696 -0.246689
v -2.931776 4.461696 0.469612
v 0.184401 3.875017 -0.246689
v 0.184401 3.875017 0.469612
v 0.184401 4.461696 -0.246689
v 0.184401 4.461696 0.469612
v 1.812568 0.379620 -0.232198
v 1.812568 0.379620 2.304532
v 1.812568 4.656644 -0.232198
v 1.812568 4.656644 2.304532
v 2.155192 0.379620 -0.232198
v 2.155192 0.379620 2.304532
v 2.155192 4.656644 -0.232198
v 2.155192 4.656644 2.304532
vt 0.000000 0.000000
vt 1.000000 1.000000
vt 0.000000 1.000000
vt 1.000000 0.000000
vt 1.000000 1.000000
vt 0.000000 1.000000
vt 0.000000 0.000000
vt 1.000000 0.000000
vt 0.625000 0.000000
vt 0.375000 0.250000
vt 0.375000 0.000000
vt 0.625000 0.250000
vt 0.375000 0.500000
vt 0.625000 0.500000
vt 0.375000 0.750000
vt 0.625000 0.750000
vt 0.375000 1.000000
vt 0.125000 0.750000
vt 0.125000 0.500000
vt 0.875000 0.500000
vt 0.625000 0.000000
vt 0.375000 0.250000
vt 0.375000 0.000000
vt 0.625000 0.250000
vt 0.375000 0.500000
vt 0.625000 0.500000
vt 0.375000 0.750000
vt 0.625000 0.750000
vt 0.375000 1.000000
vt 0.125000 0.750000
vt 0.125000 0.500000
vt 0.875000 0.500000
vt 0.625000 0.000000
vt 0.375000 0.250000
vt 0.375000 0.000000
vt 0.625000 0.250000
vt 0.375000 0.500000
vt 0.625000 0.500000
vt 0.375000 0.750000
vt 0.625000 0.750000
vt 0.375000 1.000000
vt 0.125000 0.750000
vt 0.125000 0.500000
vt 0.875000 0.500000
vt 0.625000 1.000000
vt 0.875000 0.750000
vt 0.625000 1.000000
vt 0.875000 0.750000
vt 0.625000 1.000000
vt 0.875000 0.750000
vn -0.0000 0.0000 1.0000
vn -0.9999 0.0001 0.0102
vn -0.0165 -0.9921 0.1246
vn 0.9999 0.0004 0.0149
vn 0.0041 0.9999 0.0118
vn -1.0000 0.0000 0.0000
vn 0.0000 1.0000 0.0000
vn 1.0000 0.0000 0.0000
vn 0.0000 -1.0000 0.0000
vn 0.0000 0.0000 -1.0000
vn -1.0000 -0.0054 -0.0075
vn 0.0090 -0.9996 0.0272
vn 0.9999 -0.0009 0.0105
vn 0.0114 0.9998 -0.0161
usemtl None
s off
f 1/1/1 4/2/1 3/3/1
f 4/2/2 8/4/2 5/5/2
f 3/3/3 5/5/3 6/6/3
f 3/3/4 9/7/4 1/1/4
f 1/1/5 8/4/5 2/8/5
f 7/9/6 12/10/6 10/11/6
f 11/12/7 15/13/7 12/10/7
f 16/14/8 13/15/8 15/13/8
f 14/16/9 10/17/9 13/15/9
f 15/13/10 10/18/10 12/19/10
f 11/20/1 14/16/1 16/14/1
f 18/21/6 19/22/6 17/23/6
f 20/24/7 23/25/7 19/22/7
f 24/26/8 21/27/8 23/25/8
f 22/28/9 17/29/9 21/27/9
f 23/25/10 17/30/10 19/31/10
f 20/32/1 22/28/1 24/26/1
f 26/33/6 27/34/6 25/35/6
f 28/36/7 31/37/7 27/34/7
f 32/38/8 29/39/8 31/37/8
f 30/40/9 25/41/9 29/39/9
f 31/37/10 25/42/10 27/43/10
f 28/44/1 30/40/1 32/38/1
f 1/1/1 2/8/1 4/2/1
f 4/2/11 2/8/11 8/4/11
f 3/3/12 4/2/12 5/5/12
f 3/3/13 6/6/13 9/7/13
f 1/1/14 9/7/14 8/4/14
f 7/9/6 11/12/6 12/10/6
f 11/12/7 16/14/7 15/13/7
f 16/14/8 14/16/8 13/15/8
f 14/16/9 7/45/9 10/17/9
f 15/13/10 13/15/10 10/18/10
f 11/20/1 7/46/1 14/16/1
f 18/21/6 20/24/6 19/22/6
f 20/24/7 24/26/7 23/25/7
f 24/26/8 22/28/8 21/27/8
f 22/28/9 18/47/9 17/29/9
f 23/25/10 21/27/10 17/30/10
f 20/32/1 18/48/1 22/28/1
f 26/33/6 28/36/6 27/34/6
f 28/36/7 32/38/7 31/37/7
f 32/38/8 30/40/8 29/39/8
f 30/40/9 26/49/9 25/41/9
f 31/37/10 29/39/10 25/42/10
f 28/44/1 26/50/1 30/40/1
